<?xml version="1.0" standalone="no"?>
<svg xmlns="http://www.w3.org/2000/svg" viewBox="0 0 214.56 266.93252902012614" width="214.56" height="266.93252902012614"><rect fill="none" stroke="#4e1772" stroke-width="4" width="210.56" height="262.93252902012614" x="2" y="2"></rect><g fill="#851e34" color="#851e34" transform="translate(82.28 12) scale(0.5)"><svg width="100.0" height="100.0" x="0.0" y="0.0" viewBox="0 0 100 100"><path d="M23.149,49.139c-5.409,0-9.808,4.4-9.808,9.808s4.399,9.808,9.808,9.808c5.407,0,9.807-4.4,9.807-9.808  S28.556,49.139,23.149,49.139z M23.149,65.646c-3.695,0-6.701-3.006-6.701-6.7s3.006-6.7,6.701-6.7c3.693,0,6.699,3.006,6.699,6.7  S26.842,65.646,23.149,65.646z"></path><path d="M80.293,25.135c-0.58-0.24-1.248-0.108-1.693,0.335l-6.641,6.633c-3.059-2.404-6.461-4.307-10.162-5.673  c-0.805-0.297-1.697,0.114-1.994,0.918c-0.299,0.806,0.113,1.699,0.918,1.996c3.273,1.208,6.291,2.879,9.018,4.973l-8.971,8.96  c-0.445,0.444-0.576,1.112-0.338,1.692c0.24,0.581,0.807,0.988,1.436,0.988L79.684,46c0.002,0,0.002,0,0.002,0  c0.412,0,0.807-0.191,1.098-0.482s0.455-0.7,0.455-1.112l0.012-17.827C81.25,25.95,80.873,25.376,80.293,25.135z M78.133,42.835  l-12.516-0.009l12.523-12.507L78.133,42.835z"></path><path d="M17.585,43.525c0.259,0.167,0.549,0.246,0.835,0.246c0.513,0,1.014-0.252,1.311-0.716c3.48-5.432,8.423-9.771,14.293-12.547  c0.776-0.367,1.107-1.293,0.74-2.069c-0.366-0.775-1.292-1.106-2.067-0.74c-6.399,3.025-11.787,7.756-15.582,13.681  C16.652,42.102,16.863,43.063,17.585,43.525z"></path><path d="M49.184,26.381C48.856,26.241,49,26.101,48,25.963v-7.104c2,0.551,1.973,1.594,2.01,1.672  c0.362,0.771,1.398,1.107,2.176,0.751c0.779-0.357,0.94-1.28,0.581-2.06C52.706,19.088,52,16.303,48,15.584v-1.044  c0-0.858-0.642-1.553-1.499-1.553c-0.858,0-1.501,0.695-1.501,1.553v0.997c-3,0.539-5.572,2.827-5.572,5.932  c0,2.818,2.572,4.841,5.572,6.439v9.147c-2-0.539-3.581-2.24-4.092-3.049c-0.458-0.727-1.322-0.943-2.048-0.484  c-0.726,0.458-1.084,1.417-0.625,2.143C38.851,36.643,41,39.588,45,40.21v1.322c0,0.858,0.643,1.554,1.501,1.554  c0.857,0,1.499-0.695,1.499-1.554v-1.33c4-0.642,6.241-3.634,6.241-6.543C54.241,31.105,53.962,28.439,49.184,26.381z M45,24.321  c-1-1.04-2.466-1.994-2.466-2.852c0-1.372,1.466-2.367,2.466-2.759V24.321z M48,37.038v-7.671c3,1.372,3.012,2.667,3.012,4.292  C51.012,34.797,51,36.482,48,37.038z"></path><path d="M93.986,47.428c-0.109-0.85-0.885-1.448-1.74-1.339l-2.732,0.357c-0.562,0.074-1.039,0.447-1.246,0.975l-2.625,6.718  L55.631,55.25c-0.434,0.018-0.842,0.215-1.125,0.545c-0.283,0.331-0.412,0.766-0.359,1.197l1.654,13.5  c0.09,0.73,0.678,1.299,1.41,1.359l22.57,1.898c0.49,0.547,1.182,1.262,2.137,2.249c1.186,1.224,1.332,1.95,1.232,2.188  c-0.189,0.444-1.289,0.896-2.182,0.896c-1.912,0-24.238,0.137-24.463,0.139c-0.859,0.006-1.551,0.541-1.545,1.398  C54.967,81.475,55.66,82,56.514,82h0.01c0.227,0,22.543,0.025,24.445,0.025c1.551,0,4.174-0.662,5.043-2.71  c0.488-1.155,0.562-3.019-1.861-5.52c-1.064-1.095-1.678-1.736-2.031-2.127l8.709-22.272l1.82-0.232  C93.5,49.053,94.1,48.279,93.986,47.428z M79.207,70.584L58.73,68.862l-1.295-10.569l26.879-0.996L79.207,70.584z"></path><circle cx="59.805" cy="84.845" r="1.747"></circle><circle cx="83.668" cy="84.845" r="1.747"></circle><path d="M32.288,70H14.475C10.798,70,8,73.041,8,76.717v8.906C8,86.48,8.504,87,9.362,87h28.038C38.258,87,39,86.48,39,85.623  v-8.906C39,73.041,35.962,70,32.288,70z M36,84h-4v-5.387c0-0.857-0.642-1.553-1.5-1.553S29,77.756,29,78.613V84H18v-5.387  c0-0.857-0.643-1.553-1.501-1.553c-0.857,0-1.499,0.695-1.499,1.553V84h-4v-7.283C11,74.755,12.512,73,14.475,73h17.813  C34.25,73,36,74.755,36,76.717V84z"></path></svg></g><path fill="#851e34" fill-rule="nonzero" d="M23.08 0.08Q23.64 0.08 24.46 0.82Q25.28 1.56 25.28 2.08L25.28 2.08Q25.28 4.52 25.12 8.76L25.12 8.76Q25.08 9.80 25.04 11.26Q25 12.72 25 14.64L25 14.64Q25 20.72 25.72 23.60L25.72 23.60Q25.68 24.56 24.96 24.98Q24.24 25.40 23.52 25.40L23.52 25.40Q21.92 25.40 21.42 24.28Q20.92 23.16 20.92 21.08L20.92 21.08Q20.92 13.36 21.08 6.88L21.08 6.88Q16.48 12 13.92 15.48L13.92 15.48Q13.92 15.48 13.20 15.96L13.20 15.96Q12.52 16.56 12.08 16.56L12.08 16.56Q11.04 16.56 10.36 16.04Q9.68 15.52 9.04 14.52L9.04 14.52L7.12 11.80Q5.12 9 4.20 7.56L4.20 7.56Q4.20 11.24 4.56 17.56L4.56 17.56Q4.84 21.20 4.84 23.04L4.84 23.04Q4.84 24 4.36 24.66Q3.88 25.32 2.84 25.32L2.84 25.32Q1.80 25.32 1.14 24.92Q0.48 24.52 0.44 23.72L0.44 23.72Q0.48 23.04 0.48 21.48L0.48 21.48Q0.48 18.36 0.28 13.88L0.28 13.88L0.20 11.72L0.12 8.92Q0.08 7.68 0.04 6.02Q0 4.36 0 2.40L0 2.40Q0 0 2.60 0L2.60 0Q3.40 0 4.22 0.40Q5.04 0.80 5.44 1.56L5.44 1.56Q5.76 2.96 7.80 6.20Q9.84 9.44 11.80 12.28L11.80 12.28Q13.56 10.04 14.68 8.92L14.68 8.92Q16.60 6.96 17.86 5.28Q19.12 3.60 20.60 1.24L20.60 1.24Q20.96 0.76 21.64 0.42Q22.32 0.08 23.08 0.08L23.08 0.08ZM50.96 1.88Q50.96 2.60 49.72 4L49.72 4Q48.24 5.68 42 14.32L42 14.32Q42.08 19.48 42.32 21.40L42.32 21.40Q42.44 22.60 42.44 23.12L42.44 23.12Q42.44 24.44 41.98 24.90Q41.52 25.36 40.40 25.36L40.40 25.36Q39.56 25.36 38.82 24.86Q38.08 24.36 38.08 23.64L38.08 23.64Q38.08 20.72 37.96 15.08L37.96 15.08Q37.96 14.84 37.64 14.28Q37.32 13.72 37.24 13.56L37.24 13.56Q36.40 12.08 35.14 10.26Q33.88 8.44 32.96 7.52L32.96 7.52Q31.20 5.76 30.20 4.34Q29.20 2.92 29.20 2.32L29.20 2.32Q29.20 1.48 29.98 0.98Q30.76 0.48 31.68 0.48L31.68 0.48Q32.20 0.48 32.78 0.76Q33.36 1.04 33.72 1.56L33.72 1.56Q36.08 5.08 37.92 7.40L37.92 7.40L39.80 9.84Q41.52 8.08 42.82 6.34Q44.12 4.60 45.68 2.20L45.68 2.20L46.36 1.16Q47.12 0.12 48.72 0.12L48.72 0.12Q49.48 0.12 50.22 0.56Q50.96 1 50.96 1.88L50.96 1.88Z" transform="translate(12 77) scale(3.74)"></path><path fill="#851e34" fill-rule="nonzero" d="M17.64 11.24Q17.60 10.60 17.60 9.32L17.60 9.32L17.60 7.80Q17.60 6.28 17.52 5.52L17.52 5.52Q17.44 4.88 17.44 2.20L17.44 2.20Q17.44 1.24 18.02 0.70Q18.60 0.16 19.60 0.16L19.60 0.16Q20.88 0.16 21.32 0.72Q21.76 1.28 21.76 2.56L21.76 2.56L21.76 4.08L21.72 8.48Q21.68 9.76 21.68 12.32L21.68 12.32L21.72 15.60Q21.76 16.36 21.76 17.72L21.76 17.72Q21.76 18.80 21.84 20.80L21.84 20.80Q21.92 22.64 21.92 23.56L21.92 23.56Q21.92 24.32 21.50 24.96Q21.08 25.60 20.36 25.60L20.36 25.60Q17.56 25.60 17.56 23.72L17.56 23.72Q17.56 22.68 17.64 21.40L17.64 21.40Q17.72 20.48 17.72 18.60L17.72 18.60Q17.72 17.28 17.64 14.80L17.64 14.80Q15.76 14.96 11.16 14.96L11.16 14.96Q8.28 14.96 6.68 14.94Q5.08 14.92 4.36 14.76L4.36 14.76L4.32 19.36Q4.32 19.80 4.52 21.72L4.52 21.72Q4.72 23.00 4.72 23.96L4.72 23.96Q4.72 24.56 4.02 25.10Q3.32 25.64 2.72 25.64L2.72 25.64Q1.28 25.64 0.76 24.94Q0.24 24.24 0.24 22.80L0.24 22.80L0.20 19.64Q0.16 19.08 0.16 18.08L0.16 18.08Q0.16 16.60 0.08 14.04L0.08 14.04Q0 11.72 0 10.68L0 10.68Q0 9.12 0.08 6.32L0.08 6.32Q0.16 3.68 0.16 2.40L0.16 2.40Q0.16 1.12 0.80 0.68Q1.44 0.24 2.24 0.24L2.24 0.24Q4.48 0.24 4.48 1.72L4.48 1.72Q4.48 4.36 4.36 6.76L4.36 6.76Q4.28 9.80 4.28 11.20L4.28 11.20Q5.44 11.48 6.72 11.56Q8 11.64 10.32 11.64L10.32 11.64Q15.04 11.64 17.64 11.24L17.64 11.24ZM45.92 24.96Q45.40 24.28 45.04 23.46Q44.68 22.64 44.28 21.48L44.28 21.48Q44.20 21.28 43.82 20.28Q43.44 19.28 42.96 18.56L42.96 18.56Q40.44 18.92 38.84 18.92L38.84 18.92Q37.96 18.92 36.90 18.86Q35.84 18.80 35.32 18.80L35.32 18.80Q33.32 18.64 32.12 18.64L32.12 18.64Q31.64 19.28 31.30 20Q30.96 20.72 30.44 22.16L30.44 22.16Q29.72 24.24 29.20 25.12L29.20 25.12Q28.84 25.72 27.80 25.72L27.80 25.72Q26.92 25.72 26.18 25.34Q25.44 24.96 25.44 24.28L25.44 24.28Q25.76 22.76 26.46 21.06Q27.16 19.36 28.48 16.52L28.48 16.52L30.08 12.60Q31.40 9.24 32.50 6.84Q33.60 4.44 35.40 1.16L35.40 1.16Q35.64 0.68 36.20 0.34Q36.76 0 37.44 0L37.44 0Q38.20 0 38.54 0.10Q38.88 0.20 39.08 0.42Q39.28 0.64 39.68 1.32L39.68 1.32Q41.04 3.44 42.02 5.68Q43 7.92 44.52 11.88L44.52 11.88L45.36 14.00Q46.48 16.88 47.30 18.82Q48.12 20.76 49.12 22.36L49.12 22.36Q49.76 23.40 49.76 23.80L49.76 23.80Q49.76 24.76 49.18 25.26Q48.60 25.76 47.68 25.76L47.68 25.76Q46.52 25.76 45.92 24.96L45.92 24.96ZM41.80 15.28Q41.16 13.92 39.96 10.56L39.96 10.56Q38.72 6.96 37.48 4.84L37.48 4.84Q36.72 6.76 35.24 9.80L35.24 9.80Q34.24 11.68 32.96 15.24L32.96 15.24Q35.52 15.56 38.48 15.56L38.48 15.56Q40.60 15.56 41.80 15.28L41.80 15.28ZM63.16 16.52Q61.60 16.52 60.54 16.42Q59.48 16.32 57.76 16.08L57.76 16.08L57.72 20.28Q57.68 21.36 57.68 23.36L57.68 23.36Q57.68 24.40 57.10 24.98Q56.52 25.56 55.80 25.56L55.80 25.56Q54.48 25.56 53.84 25.22Q53.20 24.88 53.20 24.00L53.20 24.00Q53.20 22.84 53.40 20.72L53.40 20.72Q53.84 16.16 53.84 11.36L53.84 11.36Q53.84 6.88 53.56 2.92L53.56 2.92Q53.60 2.36 54.14 1.64Q54.68 0.92 55.52 0.84L55.52 0.84Q56.44 0.84 58.44 0.52L58.44 0.52Q60.52 0.20 61.60 0.20L61.60 0.20Q64.88 0.20 66.70 0.84Q68.52 1.48 70.36 2.96L70.36 2.96Q72.36 6.08 72.36 7.36L72.36 7.36Q72.36 10.04 71.28 12.12Q70.20 14.20 68.12 15.36Q66.04 16.52 63.16 16.52L63.16 16.52ZM62.24 3.60Q60.96 3.60 60.02 3.74Q59.08 3.88 57.76 4.20L57.76 4.20Q57.92 7.88 57.92 9.56L57.92 9.56Q57.92 11.28 57.80 12.44L57.80 12.44Q59.52 12.80 60.52 12.90Q61.52 13.00 62.76 13.00L62.76 13.00Q65.72 13.00 66.94 11.46Q68.16 9.92 68.16 7.88L68.16 7.88Q68.16 7.28 67.80 6.40Q67.44 5.52 67.16 5.24L67.16 5.24Q66.08 4.28 65.06 3.94Q64.04 3.60 62.24 3.60L62.24 3.60ZM86.00 16.52Q84.44 16.52 83.38 16.42Q82.32 16.32 80.60 16.08L80.60 16.08L80.56 20.28Q80.52 21.36 80.52 23.36L80.52 23.36Q80.52 24.40 79.94 24.98Q79.36 25.56 78.64 25.56L78.64 25.56Q77.32 25.56 76.68 25.22Q76.04 24.88 76.04 24.00L76.04 24.00Q76.04 22.84 76.24 20.72L76.24 20.72Q76.68 16.16 76.68 11.36L76.68 11.36Q76.68 6.88 76.40 2.92L76.40 2.92Q76.44 2.36 76.98 1.64Q77.52 0.92 78.36 0.84L78.36 0.84Q79.28 0.84 81.28 0.52L81.28 0.52Q83.36 0.20 84.44 0.20L84.44 0.20Q87.72 0.20 89.54 0.84Q91.36 1.48 93.20 2.96L93.20 2.96Q95.20 6.08 95.20 7.36L95.20 7.36Q95.20 10.04 94.12 12.12Q93.04 14.20 90.96 15.36Q88.88 16.52 86.00 16.52L86.00 16.52ZM85.08 3.60Q83.80 3.60 82.86 3.74Q81.92 3.88 80.60 4.20L80.60 4.20Q80.76 7.88 80.76 9.56L80.76 9.56Q80.76 11.28 80.64 12.44L80.64 12.44Q82.36 12.80 83.36 12.90Q84.36 13.00 85.60 13.00L85.60 13.00Q88.56 13.00 89.78 11.46Q91.00 9.92 91.00 7.88L91.00 7.88Q91.00 7.28 90.64 6.40Q90.28 5.52 90.00 5.24L90.00 5.24Q88.92 4.28 87.90 3.94Q86.88 3.60 85.08 3.60L85.08 3.60ZM118.48 2.08Q118.48 2.80 117.24 4.20L117.24 4.20Q115.76 5.88 109.52 14.52L109.52 14.52Q109.60 19.68 109.84 21.60L109.84 21.60Q109.96 22.80 109.96 23.32L109.96 23.32Q109.96 24.64 109.50 25.10Q109.04 25.56 107.92 25.56L107.92 25.56Q107.08 25.56 106.34 25.06Q105.60 24.56 105.60 23.84L105.60 23.84Q105.60 20.92 105.48 15.28L105.48 15.28Q105.48 15.04 105.16 14.48Q104.84 13.92 104.76 13.76L104.76 13.76Q103.92 12.28 102.66 10.46Q101.40 8.64 100.48 7.72L100.48 7.72Q98.72 5.96 97.72 4.54Q96.72 3.12 96.72 2.52L96.72 2.52Q96.72 1.68 97.50 1.18Q98.28 0.68 99.20 0.68L99.20 0.68Q99.72 0.68 100.30 0.96Q100.88 1.24 101.24 1.76L101.24 1.76Q103.60 5.28 105.44 7.60L105.44 7.60L107.32 10.04Q109.04 8.28 110.34 6.54Q111.64 4.80 113.20 2.40L113.20 2.40L113.88 1.36Q114.64 0.32 116.24 0.32L116.24 0.32Q117.00 0.32 117.74 0.76Q118.48 1.20 118.48 2.08L118.48 2.08Z" transform="translate(12 179.981) scale(1.609)"></path><path fill="#851e34" fill-rule="nonzero" d="M19.12 18.20Q19.12 20.08 18.26 21.42Q17.40 22.76 15.44 23.88L15.44 23.88Q14.12 24.68 12.36 25.08Q10.60 25.48 8.80 25.48L8.80 25.48Q6.96 25.48 4.24 24.28L4.24 24.28Q2.28 23.32 1.14 22Q0 20.68 0 19.12L0 19.12Q0 18.04 0.48 17.54Q0.96 17.04 2.04 17.04L2.04 17.04Q2.60 17.04 3.20 17.50Q3.80 17.96 3.92 18.40L3.92 18.40Q4.48 20.04 5.88 20.90Q7.28 21.76 9.36 21.76L9.36 21.76Q11.76 21.76 13.38 20.88Q15.00 20 15.00 18.52L15.00 18.52Q15.00 17.08 13.24 15.96Q11.48 14.84 9.64 14.40L9.64 14.40Q7.00 13.68 4.96 12.68L4.96 12.68Q2.84 11.64 1.80 10.12Q0.76 8.60 0.76 6.92L0.76 6.92Q0.76 5.36 1.84 3.74Q2.92 2.12 4.40 1.40L4.40 1.40Q5.20 1 7.14 0.54Q9.08 0.08 9.96 0.08L9.96 0.08Q11.12 0.08 12.52 0.36Q13.92 0.64 14.80 1.16L14.80 1.16Q16.56 2.16 17.40 2.96Q18.24 3.76 18.24 4.96L18.24 4.96Q18.24 5.68 17.70 6.24Q17.16 6.80 15.84 6.80L15.84 6.80Q15.52 6.80 15.20 6.52Q14.88 6.24 14.40 5.68L14.40 5.68Q13.76 4.84 13.16 4.56L13.16 4.56Q12.56 4.36 11.42 4.12Q10.28 3.88 9.40 3.88L9.40 3.88Q8.44 3.88 7.40 4.28Q6.36 4.68 5.66 5.42Q4.96 6.16 4.96 7.12L4.96 7.12Q4.96 7.92 5.70 8.50Q6.44 9.08 7.48 9.44L7.48 9.44Q8.68 9.92 10.08 10.28L10.08 10.28Q11.92 10.84 13.10 11.30Q14.28 11.76 15.40 12.44L15.40 12.44Q17.36 13.60 18.24 14.82Q19.12 16.04 19.12 18.20L19.12 18.20ZM41.28 11.12Q41.24 10.48 41.24 9.20L41.24 9.20L41.24 7.68Q41.24 6.16 41.16 5.40L41.16 5.40Q41.08 4.76 41.08 2.08L41.08 2.08Q41.08 1.12 41.66 0.58Q42.24 0.04 43.24 0.04L43.24 0.04Q44.52 0.04 44.96 0.60Q45.40 1.16 45.40 2.44L45.40 2.44L45.40 3.96L45.36 8.36Q45.32 9.64 45.32 12.20L45.32 12.20L45.36 15.48Q45.40 16.24 45.40 17.60L45.40 17.60Q45.40 18.68 45.48 20.68L45.48 20.68Q45.56 22.52 45.56 23.44L45.56 23.44Q45.56 24.20 45.14 24.84Q44.72 25.48 44 25.48L44 25.48Q41.20 25.48 41.20 23.60L41.20 23.60Q41.20 22.56 41.28 21.28L41.28 21.28Q41.36 20.36 41.36 18.48L41.36 18.48Q41.36 17.16 41.28 14.68L41.28 14.68Q39.40 14.84 34.80 14.84L34.80 14.84Q31.92 14.84 30.32 14.82Q28.72 14.80 28 14.64L28 14.64L27.96 19.24Q27.96 19.68 28.16 21.60L28.16 21.60Q28.36 22.88 28.36 23.84L28.36 23.84Q28.36 24.44 27.66 24.98Q26.96 25.52 26.36 25.52L26.36 25.52Q24.92 25.52 24.40 24.82Q23.88 24.12 23.88 22.68L23.88 22.68L23.84 19.52Q23.80 18.96 23.80 17.96L23.80 17.96Q23.80 16.48 23.72 13.92L23.72 13.92Q23.64 11.60 23.64 10.56L23.64 10.56Q23.64 9 23.72 6.20L23.72 6.20Q23.80 3.56 23.80 2.28L23.80 2.28Q23.80 1 24.44 0.56Q25.08 0.12 25.88 0.12L25.88 0.12Q28.12 0.12 28.12 1.60L28.12 1.60Q28.12 4.24 28 6.64L28 6.64Q27.92 9.68 27.92 11.08L27.92 11.08Q29.08 11.36 30.36 11.44Q31.64 11.52 33.96 11.52L33.96 11.52Q38.68 11.52 41.28 11.12L41.28 11.12ZM62.32 0Q65 0 67.20 0.66Q69.40 1.32 70.80 2.60L70.80 2.60Q73.32 4.88 74.34 7.58Q75.36 10.28 75.36 14.48L75.36 14.48Q75.36 15.36 75.14 16.08Q74.92 16.80 74.44 17.92L74.44 17.92Q73.84 19.16 73.72 19.88L73.72 19.88Q72.92 21.28 71.10 22.56Q69.28 23.84 67.16 24.64Q65.04 25.44 63.44 25.44L63.44 25.44Q55.72 25.44 52.44 20.16L52.44 20.16Q51.52 18.68 51.02 17.08Q50.52 15.48 50.52 13.96L50.52 13.96Q50.52 9.88 51.98 6.86Q53.44 3.84 56.04 2.16L56.04 2.16Q57.60 1.24 59.30 0.62Q61 0 62.32 0L62.32 0ZM54.68 14.08Q54.68 16.24 55.66 17.64Q56.64 19.04 58.68 20.68L58.68 20.68Q60.36 21.32 60.96 21.50Q61.56 21.68 62.32 21.68L62.32 21.68Q66.36 21.68 68.76 19.48Q71.16 17.28 71.16 13.44L71.16 13.44Q71.16 10.40 70.48 8.64Q69.80 6.88 68.04 5.48L68.04 5.48Q67.12 4.72 65.70 4.36Q64.28 4 62.64 4L62.64 4Q60.16 4 58.36 5.46Q56.56 6.92 55.62 9.24Q54.68 11.56 54.68 14.08L54.68 14.08ZM90.20 16.40Q88.64 16.40 87.58 16.30Q86.52 16.20 84.80 15.96L84.80 15.96L84.76 20.16Q84.72 21.24 84.72 23.24L84.72 23.24Q84.72 24.28 84.14 24.86Q83.56 25.44 82.84 25.44L82.84 25.44Q81.52 25.44 80.88 25.10Q80.24 24.76 80.24 23.88L80.24 23.88Q80.24 22.72 80.44 20.60L80.44 20.60Q80.88 16.04 80.88 11.24L80.88 11.24Q80.88 6.76 80.60 2.80L80.60 2.80Q80.64 2.24 81.18 1.52Q81.72 0.80 82.56 0.72L82.56 0.72Q83.48 0.72 85.48 0.40L85.48 0.40Q87.56 0.08 88.64 0.08L88.64 0.08Q91.92 0.08 93.74 0.72Q95.56 1.36 97.40 2.84L97.40 2.84Q99.40 5.96 99.40 7.24L99.40 7.24Q99.40 9.92 98.32 12.00Q97.24 14.08 95.16 15.24Q93.08 16.40 90.20 16.40L90.20 16.40ZM89.28 3.48Q88 3.48 87.06 3.62Q86.12 3.76 84.80 4.08L84.80 4.08Q84.96 7.76 84.96 9.44L84.96 9.44Q84.96 11.16 84.84 12.32L84.84 12.32Q86.56 12.68 87.56 12.78Q88.56 12.88 89.80 12.88L89.80 12.88Q92.76 12.88 93.98 11.34Q95.20 9.80 95.20 7.76L95.20 7.76Q95.20 7.16 94.84 6.28Q94.48 5.40 94.20 5.12L94.20 5.12Q93.12 4.16 92.10 3.82Q91.08 3.48 89.28 3.48L89.28 3.48ZM113.04 16.40Q111.48 16.40 110.42 16.30Q109.36 16.20 107.64 15.96L107.64 15.96L107.60 20.16Q107.56 21.24 107.56 23.24L107.56 23.24Q107.56 24.28 106.98 24.86Q106.40 25.44 105.68 25.44L105.68 25.44Q104.36 25.44 103.72 25.10Q103.08 24.76 103.08 23.88L103.08 23.88Q103.08 22.72 103.28 20.60L103.28 20.60Q103.72 16.04 103.72 11.24L103.72 11.24Q103.72 6.76 103.44 2.80L103.44 2.80Q103.48 2.24 104.02 1.52Q104.56 0.80 105.40 0.72L105.40 0.72Q106.32 0.72 108.32 0.40L108.32 0.40Q110.40 0.08 111.48 0.08L111.48 0.08Q114.76 0.08 116.58 0.72Q118.40 1.36 120.24 2.84L120.24 2.84Q122.24 5.96 122.24 7.24L122.24 7.24Q122.24 9.92 121.16 12.00Q120.08 14.08 118 15.24Q115.92 16.40 113.04 16.40L113.04 16.40ZM112.12 3.48Q110.84 3.48 109.90 3.62Q108.96 3.76 107.64 4.08L107.64 4.08Q107.80 7.76 107.80 9.44L107.80 9.44Q107.80 11.16 107.68 12.32L107.68 12.32Q109.40 12.68 110.40 12.78Q111.40 12.88 112.64 12.88L112.64 12.88Q115.60 12.88 116.82 11.34Q118.04 9.80 118.04 7.76L118.04 7.76Q118.04 7.16 117.68 6.28Q117.32 5.40 117.04 5.12L117.04 5.12Q115.96 4.16 114.94 3.82Q113.92 3.48 112.12 3.48L112.12 3.48ZM132.44 3.36Q132.32 5.92 132.32 8.28L132.32 8.28Q132.32 10.72 132.64 15.44L132.64 15.44Q132.68 16.16 132.80 18.34Q132.92 20.52 132.92 22.32L132.92 22.32Q133.32 22.28 133.78 22.20Q134.24 22.12 134.48 22.12L134.48 22.12Q135.36 22.12 135.88 22.56Q136.40 23 136.40 23.92L136.40 23.92Q136.40 24.52 135.92 24.84Q135.44 25.16 134.26 25.30Q133.08 25.44 130.84 25.44L130.84 25.44Q128.36 25.44 127.12 25.28Q125.88 25.12 125.40 24.66Q124.92 24.20 124.92 23.28L124.92 23.28Q124.92 22.60 125.36 22.36Q125.80 22.12 126.60 22.12L126.60 22.12L127.44 22.16L128.76 22.24L128.56 17.52Q128.32 13.68 128.32 10.48L128.32 10.48Q128.32 8.76 128.44 5.76L128.44 5.76L128.52 3.56Q127.16 3.64 126.40 3.64L126.40 3.64Q125.52 3.64 125.22 3.32Q124.92 3 124.92 2L124.92 2Q124.92 0.88 126.46 0.56Q128 0.24 131.16 0.24L131.16 0.24Q133.60 0.24 134.82 0.40Q136.04 0.56 136.04 1.12L136.04 1.12Q136.04 2.48 135.46 2.90Q134.88 3.32 133.24 3.32L133.24 3.32L132.44 3.36ZM157.64 2.96Q157.64 1.80 158.18 0.94Q158.72 0.08 159.80 0.08L159.80 0.08Q160.72 0.08 161.44 0.44Q162.16 0.80 162.16 1.64L162.16 1.64Q162.16 3.28 162 6.24L162 6.24Q161.84 9.12 161.84 10.52L161.84 10.52Q161.84 12.72 162 16.40L162 16.40Q162.16 19.92 162.16 21.56L162.16 21.56Q162.16 22.88 162.12 23.52L162.12 23.52Q162.12 24.16 161.42 24.78Q160.72 25.40 159.28 25.40L159.28 25.40Q158.52 25.40 157.98 25.14Q157.44 24.88 157.24 24.56L157.24 24.56Q155.36 22.28 151.76 16.80L151.76 16.80Q147.72 10.68 145.16 7.44L145.16 7.44Q145.48 10.32 145.48 14.48L145.48 14.48Q145.48 16.32 145.42 19.26Q145.36 22.20 145.24 23.12L145.24 23.12Q145.08 24.28 144.54 24.90Q144 25.52 142.84 25.52L142.84 25.52Q141.96 25.52 141.54 25.02Q141.12 24.52 141.04 23.28L141.04 23.28Q141 21.64 141.24 18.36L141.24 18.36Q141.28 17.84 141.36 16.56Q141.44 15.28 141.44 14.28L141.44 14.28Q141.44 11.52 141.16 7.96L141.16 7.96Q140.92 4.04 140.92 2.16L140.92 2.16Q140.92 1.20 141.62 0.68Q142.32 0.16 143.24 0.16L143.24 0.16Q144.04 0.16 144.92 0.56L144.92 0.56Q148.36 4.88 154.24 13.44L154.24 13.44L158 19.20Q158.04 18.56 158.04 17.40L158.04 17.40Q158.04 15.36 157.96 13.00Q157.88 10.64 157.84 9.80L157.84 9.80Q157.64 5.92 157.64 2.96L157.64 2.96ZM186.28 6.20Q184.56 4.96 183.32 4.38Q182.08 3.80 180.44 3.80L180.44 3.80Q177.16 3.80 174.80 5.48L174.80 5.48Q173 6.80 172.12 8.92Q171.24 11.04 171.24 13.68L171.24 13.68Q171.24 16.20 172.40 18.10Q173.56 20 175.40 21Q177.24 22 179.24 22L179.24 22Q181.24 22 182.70 21.38Q184.16 20.76 185.04 19.76L185.04 19.76Q186.40 18.04 186.40 15.20L186.40 15.20Q186.40 14.80 185.76 14.64Q185.12 14.48 183.92 14.48L183.92 14.48L181.04 14.52Q179.88 14.52 179.20 14.08Q178.52 13.64 178.52 12.96L178.52 12.96Q178.52 12.00 179.16 11.54Q179.80 11.08 180.88 11.08L180.88 11.08Q182.16 11.08 184.32 11.24L184.32 11.24Q186.48 11.40 187.44 11.40L187.44 11.40Q188.84 11.40 189.70 12.28Q190.56 13.16 190.56 14.84L190.56 14.84Q190.56 16.40 189.88 18.48Q189.20 20.56 187.96 22.20L187.96 22.20Q186.76 23.80 184.42 24.62Q182.08 25.44 179.24 25.44L179.24 25.44Q176.88 25.44 174.68 24.68Q172.48 23.92 171 22.56L171 22.56Q169.16 20.84 168.10 18.46Q167.04 16.08 167.04 13.72L167.04 13.72Q167.04 10.28 168.66 7.02Q170.28 3.76 173.04 1.96L173.04 1.96Q174.24 1.16 176.40 0.64Q178.56 0.12 180.36 0.12L180.36 0.12Q183.16 0.12 185.28 0.98Q187.40 1.84 188.52 3.44L188.52 3.44Q189 4.16 189 4.72L189 4.72Q189 5.36 188.44 5.92Q187.88 6.48 187.32 6.48L187.32 6.48Q187.08 6.48 186.76 6.40Q186.44 6.32 186.28 6.20L186.28 6.20Z" transform="translate(12 229.413) scale(1)"></path></svg>